<?xml version="1.0" encoding="utf-8"?>
<!-- Generator: Adobe Illustrator 19.0.0, SVG Export Plug-In . SVG Version: 6.00 Build 0)  -->
<svg version="1.1" xmlns="http://www.w3.org/2000/svg" xmlns:xlink="http://www.w3.org/1999/xlink" x="0px" y="0px"
	 viewBox="0 0 50 50" style="enable-background:new 0 0 50 50;" xml:space="preserve">
<style type="text/css">
	.st0{display:none;}
	.st1{display:inline;fill:#FBEF4D;stroke:#FBEF4D;stroke-miterlimit:10;}
	.st2{display:inline;}
	.st3{fill:#8DC63F;}
	.st4{fill:url(#XMLID_14_);}
	.st5{opacity:0.1091;fill:#FBC115;}
	.st6{display:none;fill:none;stroke:#FFFFFF;stroke-miterlimit:10;}
	.st7{fill:#FFFFFF;}
</style>
<g id="Layer_1_copy" class="st0">
	<path id="XMLID_11_" class="st1" d="M35.2,42.7C24.8,48.6,12,45.7,6.8,36.3c-2.1-3.8-4.2-7.5-3.5-11.6c0.2-1.3,0.6-2.5,0.9-3.8
		c0.4-1.7,0.5-3.3,1.4-4.8c0.7-1.1,1.9-2.9,4.2-5.7c0.5-0.6,4.4-3,5.5-3.6c10.4-5.8,24-1,29.2,8.4S45.6,36.9,35.2,42.7z"/>
	<g id="XMLID_3_" class="st2">
		<g id="XMLID_5_">
			<path id="XMLID_9_" class="st3" d="M17.2,35.5c0.6,1.5,2.4,1.7,3.8,1.8c3.4,0.3,6.8-0.4,10-1.2c0.9-0.2,0.4-1.5-0.5-1.3
				c-2.4,0.6-4.7,1.1-7.2,1.2c-1.1,0.1-4.3,0.4-4.8-0.9C18.3,34.3,16.8,34.7,17.2,35.5L17.2,35.5z"/>
		</g>
	</g>
</g>
<g id="Layer_1">
	<g id="XMLID_1_">
		
			<radialGradient id="XMLID_14_" cx="23.691" cy="23.3116" r="18.4627" gradientTransform="matrix(-0.9881 -0.1541 0.1541 -0.9881 45.8296 53.1895)" gradientUnits="userSpaceOnUse">
			<stop  offset="9.478673e-003" style="stop-color:#FED444"/>
			<stop  offset="5.732230e-002" style="stop-color:#FDD04B"/>
			<stop  offset="0.2038" style="stop-color:#FDCF4D"/>
			<stop  offset="0.5543" style="stop-color:#FDCE4A"/>
			<stop  offset="0.7235" style="stop-color:#FDCC42"/>
			<stop  offset="0.8537" style="stop-color:#FCC833"/>
			<stop  offset="0.9634" style="stop-color:#FBC21C"/>
			<stop  offset="0.9858" style="stop-color:#FBC115"/>
		</radialGradient>
		<path id="XMLID_53_" class="st4" d="M19.4,9.5c3.4-1.3,6.9-1,10.1-0.5c6.2,0.9,11.6,4.1,13.7,10c1.3,3.6,2.7,7.1,1.5,10.6
			c-0.4,1.1-0.8,2.1-1.3,3.2c-0.5,1.4-0.9,2.8-1.9,4c-0.7,0.9-2.1,2.3-4.5,4.4c-0.6,0.5-4.2,2-5.3,2.4c-2.8,1-5.7,0.9-8.5,0.6
			c-7.1-0.9-13.5-5.5-15.8-11.9c-1-2.7-0.7-6.1-0.2-8.8C8.3,17.2,12.5,12,19.4,9.5z"/>
		<g id="XMLID_39_">
			<g id="XMLID_40_">
				<path id="XMLID_52_" class="st5" d="M29,17.9c1.7-0.7,3.3-0.7,4.9,0.1c2.2,0.3,4.2,1,6.2,2c-0.9-0.4-1.7-0.9-2.6-1.3
					c2.3,2,4.6,4,6.9,6c-0.9-1.2-1.7-2.4-2.6-3.6c0.8,1.5,1.7,3.1,2.5,4.6c-0.4-0.9-0.8-1.7-1.1-2.6c0.7,2.2,1.5,4.3,2.2,6.5
					c-0.4-1.4-0.7-2.9-1.1-4.3c1.5,11.6-1.8,14.1-7.6,18.7c0.6-0.4,1.1-0.7,1.7-1.1c-1.5,0.8-3.2,1.4-4.9,1.8c-1.5,0.5-3,1-4.5,1.6
					c0.8-0.1,1.6-0.1,2.4-0.2C23.5,44.5,14,45.3,9.4,35.4c-1.1-1.9-1.4-4-0.8-6.2c-0.5-2.2,0-4,1.5-5.5c2.9-3.8,6.4-6.9,10.6-9.4
					c1.8-0.7,3.7-1,5.6-1c0.8-0.1,2.3-0.5,2.8-1.2c0.3-0.4,0.1-1.3-0.6-1.3c-2.9,0.1-5.6,0.3-8.3,1.3c-2,0.7-3.7,1.7-5.4,3
					c-1.2,1-2,2-3,3.3c-1,1.3-2.1,2.5-3.2,3.8c-0.9,1.1-2.2,3-2.6,4.5c-0.2,0.9-0.1,2.3-0.1,3.2c0.3,3.5,1.7,6.9,3.8,9.7
					c1.6,2.1,3.6,3.7,5.9,4.9c1.9,1,4.1,2.1,6.3,2.4c1.5,0.2,3,0.3,4.5,0.4c1.1,0.1,2.2,0.4,3.4,0.6c2.7,0.4,5.3-1.5,7.7-2.3
					c-0.9,0.2-1.9,0.4-2.8,0.6c2.9-0.1,5-1.2,7-3.2c4.9-5.1,7.8-14.2,3.4-20.5c-1.6-2.3-4-4.1-6.5-5.4c-2.3-1.2-4.9-1.6-7.5-2.1
					c-2.7-0.5-4.8-0.1-7.4,0.5c-1.1,0.3,0.5,1.3,0.7,1.4c0.6,0.3,1.3,0.5,2,0.7C27.3,17.6,28.1,17.8,29,17.9z"/>
				<path id="XMLID_51_" class="st5" d="M25.7,15.2c3.7-0.8,7.2-0.1,10.4,2c-0.9-0.5-1.8-1-2.7-1.5c1.7,1,3.3,2,5,2.9
					c-1.3-1-2.7-1.9-4-2.9c2,2,4.1,3.9,6.1,5.9c-1-1.3-2.1-2.6-3.1-4c1,1.6,1.9,3.2,2.9,4.8c-0.5-1-1.1-1.9-1.6-2.9
					c0.7,1.7,1.4,3.3,2.1,5c-0.4-1.1-0.7-2.1-1.1-3.2c0.4,3.6,0.9,7.2,1.3,10.8c0.1-1.9,0.2-3.8,0.2-5.6c-0.3,2.4-0.6,4.9-0.9,7.3
					c0.4-1.9,0.7-3.7,1.1-5.6c-0.5,1.7-1.1,3.3-1.6,5c0.4-1.1,0.9-2.3,1.3-3.4c-1.7,2.9-3.3,5.8-5,8.8c0.7-1,1.4-2.1,2.1-3.1
					c-1.4,1.7-2.7,3.4-4.1,5c1.5-1.4,2.9-2.8,4.4-4.2c-3.6,3.1-7.1,4.8-11.1,6.8c2.5-0.6,5.1-1.3,7.6-1.9
					c-8.8,2.7-17.1,1.8-25.1-2.8c0.9,0.7,1.7,1.5,2.6,2.2c-1.5-1.4-3-2.8-4.5-4.2c0.7,0.8,1.5,1.6,2.2,2.4c-1.3-1.5-2.5-3.1-3.8-4.6
					c0.6,0.9,1.2,1.7,1.8,2.6c-1-1.7-2-3.3-3-5c0.7,1.5,1.3,2.9,2,4.4c-0.9-2.9-1.8-5.8-2.7-8.7C4.8,29,4.9,30.5,5,32
					c0-2.2,0.1-4.4,0.1-6.6c-0.1,1.4-0.2,2.8-0.3,4.2c4.7-6.1,9.4-12.3,14-18.4c-0.7,0.2-1.5,0.5-2.2,0.7c1.8-0.4,3.7-0.9,5.5-1.3
					c0.6-0.1,2.6-0.4,2.6-1.4c0.1-1-1.1-0.7-1.7-0.7c-5.1,0.5-9.8,2.1-13.5,5.8c-1.4,1.4-2.6,3-3.5,4.7c-0.8,1.7-1.6,3.4-2.4,5.1
					C3.4,25,3.2,25.8,3,26.5C2.9,27.7,3,29,3.2,30.2c1.1,7.9,8.1,13.7,15.5,15.6c2.6,0.6,5.1,0.7,7.8,0.5c3.1-0.3,5.6-1.8,8.3-3.2
					c-2.8,0.3-5.6,0.7-8.4,1c0.3,0.1,0.5,0.3,0.8,0.4c1,0.5,3.9-0.5,4.7-0.7c1.3-0.3,3.5-0.6,4.4-1.6c1.7-1.9,3.9-3.7,4.8-6.1
					c0.4-1.1,0.8-2.1,1.1-3.3c-0.8,1.3-1.5,2.6-2.3,3.9c3.3-4.6,3-3.1,3.6-7.1c0.1-0.8,0.2-1.5,0.2-2.3c0-1.6-0.2-4-1.1-5.4
					c-0.7-1.2-1.6-2.2-2.5-3.3c-1.7-2-3.1-2.7-5.6-4.2c-1.4-0.8-2.6-1.4-4.1-1.8c-1.8-0.4-3.7-0.9-5.5-1c-1.9-0.1-3.4,0.3-5.2,0.7
					c-0.3,0.2-0.4,0.4-0.3,0.8c0.4,0.5,0.9,0.8,1.5,1C22.1,14.5,24.2,15.5,25.7,15.2z"/>
				<path id="XMLID_50_" class="st5" d="M27.8,11.1c1.8-0.6,3.6-0.5,5.3,0.3c1.9,0.2,3.7,0.9,5.3,2c1.4,1.8,2.7,3.6,4.1,5.3
					c1,3.3,0.8,6.4-0.6,9.3c-0.7,1.9-1.5,3.9-3.2,5.1c-0.8,0.6-2,0.9-2.9,1.5c-0.8,0.6-1.6,1-2.6,1.4c-1,0.3-2.1,0.6-3.2,0.9
					c-1.4,0.4-2.5,0.4-3.9,0.4c-9.2-0.1-17.3-0.8-20.9-15.9c0.2,1.2,0.4,2.5,0.6,3.7c0-1.5,0-3,0.1-4.6c-0.1,0.7-0.1,1.5-0.2,2.2
					c6.9-6.1,13.8-12.2,20.6-18.3c0.6-0.1,0.9-0.8,0.6-1.3c-0.3-0.6-1.2-0.5-1.8-0.5c-3.4,0.3-6.6,0.7-9.7,2.2c-2,1-4.1,2.2-5.5,3.9
					c-1.8,2.1-3.2,4.3-4.4,6.8c-0.6,1.3-1.2,2.5-1.6,3.8c-0.4,1.4-0.5,2.7-0.2,4.1c0.8,4.6,3.2,8.4,6.8,11.3c4,3.2,9.1,4.7,14.1,4.1
					c-1.1-0.1-2.2-0.2-3.3-0.2c0.6,0.1,1.1,0.3,1.7,0.3c0.9,0,1.7,0.2,2.5,0.5c0.3,0.1,0.7,0.2,1,0.3c0.6,0.1,1.1-0.1,1.8-0.4
					c1.5-0.5,2.9-0.6,4.4-0.8c0.6-0.1,1.3-0.4,1.8-0.7c1.5-0.8,2.9-1.8,4.4-2.6c3.2-1.6,4.5-5.1,5.5-8.3c0.7-2.1,0.9-3.5,0.7-5.8
					c-0.3-3.1-1.6-5.8-3.7-8.1c-1.9-2-4.6-3.2-7.1-4c-0.8-0.3-1.6-0.5-2.4-0.6c-1.7-0.3-3-0.1-4.8,0.2C25.5,9.1,26.6,11.3,27.8,11.1
					z"/>
				<path id="XMLID_49_" class="st5" d="M28.4,13.7c0.8-0.2,1.6-0.3,2.4-0.5c1.6,0,3,0.3,4.4,0.9c0.8,0.3,1.5,0.6,2.3,0.9
					c2.1,0.7,3.9,1.9,5.4,3.6c-1-1.1-2-2.2-3-3.3c1.4,1.8,2.9,3.6,4.3,5.3c-1.3-1.9-2.5-3.8-3.8-5.7c1.6,2.7,3.1,5.4,4.7,8.2
					c-1-2.1-2-4.1-2.9-6.2c1.1,2.9,2.1,5.8,3.2,8.7c-0.6-2.1-1.2-4.3-1.9-6.4c0.5,3.5,1,7,1.5,10.5c0-1.3-0.1-2.6-0.1-4
					c-0.1,2-0.2,4-0.2,6c0.3-2.1,0.5-4.2,0.8-6.3c-0.5,2.7-1,5.4-1.6,8c0.5-2,1.1-4,1.6-6c-0.8,2-1.6,4-2.3,6.1
					c0.9-1.8,1.8-3.7,2.8-5.5c-2.6,3.7-5.2,7.3-7.9,11c0.9-0.8,1.9-1.6,2.8-2.5c-1.3,1.1-2.7,2.1-4,3.2c1.6-1.1,3.3-2.2,4.9-3.3
					c-3.5,1.9-7,3.6-10.5,5.4c1.9-0.5,3.8-1,5.7-1.5c-5.1,0.9-11,1.6-16.2,0.7c1.2,0.3,2.4,0.7,3.6,1c-2-0.6-4-1.3-6-1.9
					c1.2,0.4,2.3,0.9,3.5,1.3c-2-0.8-3.9-1.7-5.9-2.5c1.1,0.6,2.2,1.1,3.3,1.7c-3.4-3.6-6.8-7.3-10.2-10.9c0.8,1.8,1.6,3.7,2.4,5.5
					c-1-2.7-1.9-5.4-2.9-8.1c0.6,2,1.1,4,1.7,5.9c0.1-4.4,0.2-8.8,0.3-13.2c-0.3,2.1-0.6,4.2-0.9,6.3c1.2-3.5,2.3-6.9,3.5-10.4
					c-0.9,2-1.9,3.9-2.8,5.9c1.3-2.2,2.6-4.4,3.9-6.6c-1.3,1.8-2.6,3.5-3.9,5.3c2-2.4,4-4.8,6.1-7.2c-1.6,1.5-3.1,3.1-4.7,4.6
					c2.4-2,4.8-4.1,7.2-6.1c-1.8,1.3-3.6,2.6-5.4,3.9c2.8-1.7,5.5-3.4,8.3-5.1c-2,1-4,1.9-6,2.9c3-1.2,6.1-2.4,9.1-3.7
					c0.5-0.2,1.1-0.4,1.6-0.7c0.3-0.1,1-0.6,0.9-1c-0.4-1.4-6.2,1-6.6,1.1c-1.3,0.4-2.5,0.9-3.6,1.7c-1,0.4-1.9,0.9-2.8,1.5
					c-0.9,0.7-1.5,1.6-2.2,2.6c-0.9,1.2-1.8,2.4-2.5,3.7c-0.9,1.5-0.9,2.9-1.3,4.8c0.4-1.5,0.9-3.1,1.3-4.6
					c-1.1,1.9-2.6,4.1-2.9,6.3c-0.2,1.2,0.3,2.3,0.6,3.5c0.4,1.6,0.8,3.3,1.6,4.8c0.7,0.9,1.5,1.9,2.2,2.8c0.8,1.2,1.7,2.3,2.9,3.2
					c1.4,1.2,3.2,2.6,4.9,3.4c2.2,1,4.6,1.5,7,1.7c1.7,0.2,3.4,0.2,5-0.1c1.9-0.3,3.7-0.9,5.3-1.9c1.1-0.3,2.2-0.9,3.1-1.6
					c1.5-1.4,3-2.8,4.4-4.2c0.6-0.8,1-1.6,1.2-2.6c0.8-2.1,1.5-4.2,2-6.4c0.7-3.1,0-4.8-1.7-8.1c-1-2-2.2-4-3.6-5.9
					c-1.8-2.5-4.5-3.8-7.3-4.9c-2.6-1-5.7-1.4-8.5-1.7c-2.6-0.3-4.9,0-7.5,0.6c-1.9,0.5,2.1,2.5,2,2.4c1.6,0.9,3.3,1.7,5,2.4
					C26.5,13.3,27.4,13.6,28.4,13.7z"/>
				<path id="XMLID_48_" class="st5" d="M30.3,10.3c1.9-0.3,3.4-0.3,5.3,0.2c3,0.9,5.4,2.3,8,4.1c-0.2-0.3-0.5-0.5-0.7-0.8
					c2.4,3.1,3.5,6.4,3.4,10.2c0-0.3,0.1-0.5,0.1-0.8c-0.5,1.5-0.8,3.1-1.4,4.6c-1.7,4.6-3.6,5.1-6.5,6.7c-0.8,0.5-1.6,0.9-2.5,1.3
					c-1.2,0.5-2,0.5-3.3,0.9c-0.9,0.2-2,0.7-3,0.7c-0.7,0-1.6-0.3-2.3-0.4c-1.8-0.3-3.6-0.6-5.4-1c-4.7-0.2-7.2-3.4-7.4-9.4
					C5.6,16.2,10,8.8,27.7,4.3c0.6-0.1,1.8-0.6,0.9-1.4c-0.8-0.7-2.8-0.4-3.7-0.2c-3.7,0.9-7.1,1.9-10,4.3c-2.9,2.3-4.5,5.2-6,8.5
					c0.6-1.2,1.2-2.3,1.9-3.5c-1.7,2.5-3.7,5-4.4,8C6,22,6.5,24.2,7,26c0.7,2.3,1.9,4.3,3.5,6.1c2.2,2.4,4.8,4.1,7.8,5.4
					c2.2,0.9,4.2,1.1,6.5,1c-0.5-0.1-0.9-0.1-1.4-0.2c0.8,0.2,1.5,0.4,2.4,0.6c0.7,0.1,1.4,0.3,2.1,0.5c0.3,0.1,0.5,0.3,0.8,0.4
					c1,0.2,2.1-0.6,3.1-0.8c1-0.3,1.9-0.3,2.9-0.4c0.9-0.1,1.8-0.6,2.5-1c0.7-0.4,1.4-0.8,2.1-1.1c1.1-0.6,2.2-1.2,3.3-1.7
					c1.4-0.9,2.4-2.4,3.2-3.8c1.5-3,2.8-6.4,2.3-9.8c-0.3-2.2-0.9-4.3-2.1-6.2c-1.3-2.1-2.7-3.1-4.7-4.4c-1.7-1-3.6-1.8-5.5-2.4
					c-0.8-0.2-1.5-0.4-2.3-0.6c-1.6-0.3-3.1-0.3-4.7,0.1C26.3,7.9,29,10.5,30.3,10.3z"/>
				<path id="XMLID_47_" class="st5" d="M26.4,14.8c1.5-0.6,2.9-0.7,4.3-0.2c4.5,1.1,7.7,4.3,9.5,9.7c0.2,1.7,0,3-0.4,4.6
					c-0.4,1.6-1.2,3.8-2.3,4.9c-1.5,1.5-3.2,3-4.8,4.5c0.5-0.4,1.1-0.8,1.6-1.2c-2.8,1.7-6.1,2.8-9.1,4.1c1.2-0.3,2.4-0.7,3.6-1
					c-4.8,0.4-10,0.8-14.8-0.3c0.8,0.2,1.6,0.5,2.4,0.7c-1.6-0.6-3.1-1.2-4.7-1.8c0.7,0.3,1.5,0.7,2.2,1c-1.5-0.8-3.1-1.6-4.6-2.4
					c0.7,0.4,1.3,0.8,2,1.2c-1.4-1-2.7-2-4.1-3c0.6,0.5,1.2,1,1.7,1.5c-2.2-4.5-4.5-9-6.7-13.5c-0.1,0.8-0.1,1.7-0.2,2.5
					c0.7-4,2.3-7.7,4.9-10.9c4.7-5.4,10.2-7.9,16.5-7.5c0.5,0,1-0.1,1.1-0.7c0.1-0.4-0.2-1.2-0.7-1.2c-3.7,0-7.2,0.2-10.7,1.8
					c-2,0.9-4.1,2.3-5.6,3.9c-2.3,2.3-4.1,4.9-5.5,7.8c-0.8,1.6-1.7,3.3-1.7,5.2c-0.1,4.4,2,8.5,4.8,11.7c2,2.2,4.2,3.9,6.9,5.1
					c2.3,1,4.8,1.6,7.3,1.7c2.2,0.2,4.3-0.3,6.5-0.8c-1.6,0-3.2-0.1-4.8-0.1c3,0.7,3.4,1.1,5.9,0.2c1.4-0.5,2.6-1.1,3.8-1.9
					c-0.7,0.3-1.4,0.7-2.1,1c0.7-0.1,1.3-0.2,2-0.2c0.8-0.2,1.5-0.6,2.2-1c1.1-0.8,2.1-1.6,3.3-2.3c1.3-0.6,2.4-1.4,3.3-2.5
					c0.7-1.2,1.4-2.4,1.8-3.7c1-2.9,1.5-5.5,0.9-8.5c-0.7-3.7-2.8-6.5-6-8.5c-1.6-1-3.1-1.6-4.8-2.1c-2.2-0.6-3.5-0.5-5.6,0.1
					C24.8,13.3,25.2,15.1,26.4,14.8z"/>
				<path id="XMLID_46_" class="st5" d="M27.8,18.7c4.3,1.4,8.6,2.9,12.8,4.3c-0.5-0.5-0.9-0.9-1.4-1.4c1.2,2.6,2.5,5.2,3.7,7.9
					c-0.2-0.7-0.4-1.4-0.5-2.1c0.6,3.7,0.2,7.3-0.9,10.9c0.4-1.1,0.8-2.1,1.1-3.2c-0.6,1.2-1.3,2.4-1.9,3.5c0.4-0.6,0.8-1.2,1.2-1.8
					c-2.2,2.8-4.6,5.2-7.4,7.4c0.6-0.4,1.1-0.8,1.7-1.2c-1.5,0.8-3.1,1.4-4.8,1.7c-1.5,0.5-2.9,1-4.4,1.6c0.9-0.1,1.8-0.1,2.7-0.2
					c-1.4-0.2-2.8-0.4-4.1-0.6c-2.9-0.3-6.7-0.3-9.3-1.4c-0.8-0.4-1.6-0.8-2.5-1.2c-7.8-9.3-8.9-17-3.2-23c0.6-0.8,1.2-1.5,1.9-2.3
					c4.3-3.6,9-5.2,14.1-4.8c0.4,0,1.2-0.2,1.4-0.7c0.1-0.3-0.3-1.3-0.7-1.3c-3.6,0-7.3,0.2-10.7,1.8c-1.5,0.7-2.8,1.5-4.1,2.6
					c-2.3,1.9-4.6,4.8-6.3,7.2C5.6,23.2,5,24,4.6,24.8c-1.1,1.9-1,1.8-1.1,3.7c-0.1,3.2,0.7,6,2.2,8.8c1.3,2.4,2.9,4.1,5,5.8
					c2.4,2,6.2,3.8,9.3,4.2c1.6,0.2,3.4,0.3,5,0.3c1,0,1.9,0.3,2.8,0.4c2.8,0.3,5.1-1.5,7.6-2.5c-1,0.2-2,0.5-3,0.7
					c3.9-0.1,6.2-2.5,8.6-5.4c-0.8,0.7-1.6,1.5-2.4,2.2c2.2-1.5,4.2-2.9,5.2-5.4c0.3-0.9,0.5-1.8,0.7-2.6c0.3-1.4,0.6-2.8,0.8-4.2
					c0.3-4-1.4-7.8-4.4-10.4c-2.5-2.1-5.6-3.2-8.7-3.9c-0.8-0.2-1.6-0.4-2.4-0.4c-1.7-0.2-2.9,0.1-4.6,0.5c-0.6,0.2-0.7,1-0.3,1.4
					C25.3,18.6,27,18.8,27.8,18.7z"/>
				<path id="XMLID_45_" class="st5" d="M30.9,13.4c0.8-0.2,1.6-0.3,2.4-0.5c1.6,0,3.1,0.3,4.5,1c3.1,1.3,4.9,2,7.6,4.7
					c-0.7-0.9-1.3-1.7-2-2.6c1.1,1.6,2.2,3.2,3.4,4.8c-0.5-0.9-1-1.8-1.5-2.7c0.8,1.7,1.6,3.5,2.4,5.2c-0.5-1.5-1-3-1.5-4.5
					c0.2,4.6,0.4,9.2,0.6,13.8c0.3-1.2,0.7-2.4,1-3.7c-2.3,3.2-4.7,6.3-7,9.5c-0.8,0.7-1.7,1.1-2.7,1.3c-2,0.6-3.9,1.3-5.8,2
					c1-0.1,1.9-0.3,2.9-0.4c-3.8-0.2-7.6-0.4-11.5-0.5c0.6,0.1,1.3,0.2,1.9,0.2c-3.7-1.9-7.4-3.9-11.1-5.8c0.5,0.5,1,1,1.5,1.5
					c-7-8.4-4.3-12.9-0.8-21c-0.7,1.5-1.5,3-2.2,4.5c1.1-1.7,2.1-3.3,3.2-5c-0.6,0.9-1.3,1.7-1.9,2.6c1.3-1.5,2.6-3,3.9-4.5
					c-0.8,0.8-1.6,1.5-2.3,2.3c1.6-1.3,3.1-2.5,4.7-3.8c-0.9,0.6-1.8,1.3-2.7,1.9c2.4-1.4,4.8-2.8,7.1-4.2c-1.6,0.8-3.2,1.6-4.8,2.4
					c2.6-1,5.3-1.9,7.9-2.9C28.6,8.8,30,8.4,30,7.7C30,7.2,29.6,7,29,7c-4.5,0.6-8.8,1.5-12.4,4.5c-2.2,1.9-3.6,4.3-5.2,6.6
					c-1.2,1.8-2.4,3.6-2.8,5.8c-0.5,2.5,0.3,5.1,1.3,7.4c1.5,3.6,4.3,6.7,7.8,8.6c1.9,1,4,1.9,6.1,2.5c2.9,0.7,4.6,0.4,7.8,0.5
					c-0.6-0.1-1.2-0.1-1.8-0.2c0.8,0.2,1.7,0.5,2.5,0.6c0.8,0.1,1.7-0.2,2.5-0.4c1.2-0.4,2.3-0.8,3.5-1.2c0.6-0.2,1.2-0.4,1.8-0.7
					c1.4-0.7,2.6-1.6,3.7-2.6c1.9-1.8,3.8-3.6,4.9-6.1c1.1-2.7,1.1-5.2,0.7-8.1c-0.4-3-1-6-2.9-8.5c-2.9-3.9-7-6.1-11.6-7.1
					C33.6,8.4,32.3,8,31,7.8c-2.6-0.5-5-0.3-7.5,0.3c-1.7,0.4,1.3,2.2,1.4,2.3c1.3,0.8,2.5,1.6,3.9,2.3
					C29.4,13.1,30.1,13.3,30.9,13.4z"/>
				<path id="XMLID_44_" class="st5" d="M26.2,12.5c0.8-0.1,1.5-0.3,2.3-0.4c1.6,0.1,3.1,0.4,4.6,1c2.6,0.7,4.2,2.8,4.6,6.2
					c3.1,2.2,4.2,4.8,3.2,7.8c-0.4,1.5-1,3.2-2,4.5c-1.3,1.6-3.4,3.4-4.8,4.7c0.6-0.5,1.1-0.9,1.7-1.4c-2.8,1.8-6.2,3.1-9.2,4.5
					c1.4-0.5,2.7-1,4.1-1.5c-4.2,0.8-8.5,0.9-12.7,1.1c1,0.1,2.1,0.2,3.1,0.3C15.4,34,9.6,28.8,3.9,23.5c0.1,1.4,0.2,2.9,0.3,4.3
					C4,15.5,10.5,8.3,23.6,6.2c0.7-0.1,1.6-0.1,1.6-1c-0.1-0.9-1-0.9-1.7-0.8c-2.6,0.3-5.3,0.5-7.8,1.4C13.5,6.6,11.4,8,9.5,9.5
					c-3.6,2.9-6.2,7.8-6.8,12.3c-0.2,1.2-0.1,2.3,0.1,3.5c-0.2,1.3-0.1,2.5,0.4,3.6c0.4,1,0.8,2,1.3,2.9c1.5,2.9,4.1,5.1,7,6.7
					c3.2,1.8,7.3,2.9,11,2.9c2.4,0,4.8-0.7,7.1-1.4c1.4-0.4,2.7-0.3,4-1c1.4-0.8,2.5-1.9,3.9-2.8c1.2-0.7,2.3-1.4,3.2-2.5
					c0.8-1.1,1.4-2.6,1.8-3.8c0.8-2.4,1.3-4.7,1-7.2c-0.5-4-2.6-7.3-5.9-9.5c-1.9-1.3-4-2.1-6.2-2.7c-0.7-0.2-1.4-0.4-2.1-0.5
					c-1.6-0.3-2.9-0.1-4.6,0.2c-0.6,0.1-0.8,0.8-0.6,1.3C24.3,11.9,25.7,12.6,26.2,12.5z"/>
				<path id="XMLID_43_" class="st5" d="M27.3,11c0.8-0.2,1.6-0.3,2.4-0.5c1.7,0,3.3,0.4,4.7,1c3.2,1.3,4.9,2.1,7.7,4.8
					c-0.6-0.7-1.2-1.3-1.7-2c1.2,2.8,2.5,5.7,3.7,8.5c-0.2-1.3-0.5-2.6-0.7-4c-0.2,3.5-0.4,7-0.5,10.5c0.3-0.8,0.6-1.6,0.8-2.4
					c-1.6,3.4-3.8,6.3-6.8,8.7c0.8-0.5,1.6-1.1,2.4-1.6c-1.4,0.8-2.8,1.6-4.3,2.3c-4.5,1.4-9,2.2-13.7,2.3c1.2,0.1,2.4,0.2,3.6,0.2
					c-5.1-2.5-10.1-5.1-15.2-7.6c1.4,1.5,2.8,3.1,4.2,4.6c-1.8-2.3-3.6-4.6-5.4-6.9c1.2,1.8,2.4,3.5,3.6,5.3c-1.5-2.5-3-5.1-4.5-7.6
					c0.9,1.9,1.8,3.8,2.7,5.8c-1-2.7-2.1-5.5-3.1-8.2c0.6,2.1,1.2,4.1,1.7,6.2c-0.5-2.7-1-5.4-1.4-8.1c0.2,2,0.4,4.1,0.6,6.1
					c0-2.7,0-5.3,0-8c-0.2,2-0.3,4-0.5,6.1c0.9-3.7,1.8-7.4,2.7-11.1c-0.8,1.9-1.6,3.8-2.3,5.7c1.3-2.8,2.6-5.5,3.8-8.3
					c-1,1.7-2.1,3.4-3.1,5.1c1.7-2.4,3.4-4.9,5.1-7.3c-1.3,1.5-2.6,2.9-3.9,4.4c2.1-2,4.2-4.1,6.3-6.1c-1.5,1.2-2.9,2.3-4.4,3.5
					c2.4-1.6,4.8-3.3,7.1-4.9c-1.6,0.9-3.2,1.8-4.8,2.6c2.6-1.2,5.3-2.4,7.9-3.5c-1.6,0.6-3.3,1.1-4.9,1.7c2.8-0.7,5.6-1.5,8.3-2.2
					c1.2-0.3,0.7-1.2-0.2-1.4c-1.1,0-2.1,0-3.2,0.2c-1.1,0.1-2.1,0.3-3.2,0.6c-1.2,0.6-2.4,1.2-3.6,1.8c-0.7,0.6-1.4,1.3-2.1,2
					c-1.6,1.5-3.2,3-4.6,4.7C6.8,16.1,6.4,19.1,6,22c0.8-1.9,1.6-3.8,2.3-5.7c-1,2-2,4-2.9,6c0,0.3,0,0.6,0,0.9
					c0.3,1.5,0.7,3,1.2,4.5c0.2,1.1,0.5,2.2,1,3.2c0.5,0.9,1.2,1.7,1.9,2.5c1.1,1.2,2.3,2.7,3.6,3.6c2.2,1.5,5,2.7,7.6,3.5
					c2.1,0.2,4.3,0.4,6.4,0.5c1,0.2,1.9,0,2.8-0.3c1.1-0.3,2-0.6,3.1-1c-2.2,0.2-4.5,0.4-6.7,0.6c2.5,0.4,3.4,0.6,5.6-0.1
					c2-0.7,3.7-1.5,5.4-2.6c-1.9,0.8-3.8,1.6-5.7,2.4c2-0.2,3.8-0.8,5.5-1.8c0.8-0.5,1.5-1.1,2.2-1.7c1.5-1.3,3.4-2.4,4.5-4.1
					c1-1.5,1.4-3.3,1.6-5.1c0.3-1.8,0.6-3.5,0.3-5.4c-0.8-4.3-2.4-7.5-5.5-10.5c-2.8-2.6-6.9-3.8-10.5-4.6c-2.8-0.6-5.3-0.5-8.1,0
					c-1.5,0.3,0.8,1.9,0.9,2c1,0.7,2,1.3,3,1.8C26.1,10.8,26.6,11,27.3,11z"/>
				<path id="XMLID_42_" class="st5" d="M30.7,15.7c4.7-1,8.9,1.1,12.7,3.5c-0.9-0.8-1.8-1.6-2.7-2.3c1.5,1.4,3,2.8,4.5,4.1
					c-1.2-1.4-2.4-2.8-3.6-4.2c1.6,2.1,3.2,4.2,4.9,6.3c-0.9-1.5-1.9-3-2.8-4.5c1,4.6,2.1,9.3,3.1,13.9c0.1-0.9,0.1-1.9,0.2-2.8
					c-0.2,1.6-0.4,3.2-0.6,4.9c0.4-1.4,0.7-2.8,1.1-4.2c-2.1,6.2-4.7,8.3-8.7,11.6c0.6-0.4,1.2-0.8,1.8-1.2
					c-2.8,1.6-6.3,2.3-9.3,3.4c1.2-0.1,2.4-0.2,3.5-0.3c-3.9-0.4-7.9-0.8-11.8-1c0.5,0.1,1.1,0.2,1.6,0.3
					C12.1,38.7,7.7,32.8,11,25.5c0.9-1.5,1.6-3.1,2.1-4.8c-0.3,0.6-0.6,1.3-0.9,1.9c4.4-3.4,8.8-6.9,13.1-10.3
					c1-0.3,2.1-0.8,3.1-1.2c0.5-0.1,0.9-0.4,1.2-0.8c0.4-0.6,0.2-1.2-0.7-1.1c-2.3,0.2-4.5,0.5-6.8,1.2c-2.6,0.8-4.8,2.3-6.8,4.1
					c-1.4,1.3-2.5,2.9-3.6,4.5c-1.1,1.6-2.4,3.1-3.2,4.9c-2.2,5.1,0.8,12,4.6,15.6c3.2,3,7.7,5.1,12,5.8c1.6,0.2,3.3-0.1,4.9,0.1
					c0.7,0.1,1.2,0.4,1.9,0.4c2.7,0.1,5.2-1.5,7.6-2.5c-1,0.3-2,0.5-3,0.8c3.2-0.2,5.6-1.8,7.7-4.2c2.5-2.8,3.7-5,4.6-8.3
					c0.9-3.5-0.1-7.3-1.7-10.5c-0.8-1.6-1.7-3.1-2.8-4.5c-1.9-2.3-5.3-3.7-8.1-4.5c-2-0.6-4-1-6-1.2c-0.8-0.1-1.6-0.2-2.4-0.2
					c-1.7-0.1-3.3,0.2-4.9,0.7c-1.7,0.4,1.7,2.1,1.6,2.1c1.3,0.6,2.6,1.2,4,1.7C29.1,15.6,29.9,15.7,30.7,15.7z"/>
				<path id="XMLID_41_" class="st5" d="M25.7,16.3c10.6-1.8,15.6,6.6,14.1,13.7c-0.9,4.4-3.6,7.7-7.4,10.4c0.7-0.4,1.4-0.9,2.2-1.3
					c-3.2,1.5-6.5,2.9-9.7,4.4c1.7-0.4,3.4-0.8,5.1-1.2c-8.2,0.6-15.2,0.9-22.6-4.7c0.5,0.5,1,0.9,1.5,1.4
					c-2.1-4.7-4.2-9.4-6.4-14.1c-0.1,0.6-0.1,1.3-0.2,1.9c0.8-2.7,2-5.2,3.6-7.4c1.4-1.9,3-3.5,5-4.8c1.7-2.2,3.8-3.5,6.5-4
					c2.2-0.5,4.5-0.7,6.8-0.6c1.3,0,1.4-1.9,0.3-1.9c-2.4,0-4.8,0-7.2,0.6c-2.1,0.5-4.3,1.4-6.1,2.6c-2.3,1.4-3.7,3.5-5.4,5.5
					c-1.7,2-3.2,4.2-4.3,6.7c-0.8,1.9-0.7,3.4-0.4,5.6c0.7,4,2.6,7.4,5.4,10.3c0.8,0.8,1.6,1.6,2.5,2.3c2.1,1.6,4.9,2.7,7.5,3.3
					c2.1,0.5,4,0.7,6.2,0.5c2.5-0.3,4.3-0.8,6.8-1.5c-1.9,0.1-3.8,0.2-5.6,0.4c0.3,0.2,0.6,0.3,0.8,0.5c0.7,0.4,1.7,0.1,2.4-0.1
					c1-0.2,2.4-0.3,3.3-0.9c1-0.7,2.1-1.5,3.1-2.2c-1.6,0.7-3.1,1.3-4.7,2c2.3-0.3,3.7-0.6,5.4-2c1.2-1,2.1-2,3-3.3
					c-0.8,0.9-1.7,1.8-2.5,2.8c1.1-1,2.5-1.5,3.6-2.4c1.7-1.4,2.7-3.3,3.3-5.5c0.7-2.3,1.2-4.7,0.9-7.1c-0.3-2.5-1.2-4.6-2.8-6.5
					c-1.7-2-3.9-3.3-6.4-4.2c-1.2-0.4-2.4-0.8-3.6-1.1c-2-0.5-3.4-0.2-5.4,0.1c-0.5,0.1-0.6,1-0.4,1.4
					C24.2,16.2,25.2,16.3,25.7,16.3z"/>
			</g>
		</g>
	</g>
	<path id="XMLID_12_" class="st6" d="M20.2,33.9c-1.7-2,10.4,6.2,9.9,0.6c-0.1-0.7,1.2-0.6,1-0.6"/>
	<g id="XMLID_10_" class="st0">
		<g id="XMLID_22_" class="st2">
			<path id="XMLID_26_" class="st3" d="M17.1,36.6C16,38.2,17.5,39,19,39.2c3.9,0.6,8.4-0.9,12-2.4c0.6-0.2,0.3-1.1-0.3-0.8
				c-2.6,1.1-5.3,1.9-8,2.3c-0.8,0.1-5.8,0.6-4.6-1.2C18.3,36.5,17.4,36.2,17.1,36.6L17.1,36.6z"/>
		</g>
	</g>
	<g id="XMLID_2_">
		<path id="XMLID_27_" class="st7" d="M30.9,32.3c0,0,0,0.1,0.1,0.4c0,0.1,0,0.3-0.1,0.5c-0.1,0.2-0.1,0.4-0.2,0.6
			c-0.2,0.4-0.6,0.8-1,1.2c-0.4,0.4-0.9,0.7-1.5,1c-0.3,0.1-0.6,0.2-0.9,0.3c-0.3,0.1-0.6,0.1-0.9,0.2c-0.3,0-0.6,0-0.8,0
			c-0.3,0-0.5-0.1-0.7-0.1c-0.2-0.1-0.4-0.2-0.6-0.3c-0.2-0.1-0.3-0.2-0.4-0.3c-0.2-0.2-0.3-0.3-0.3-0.3s0.1,0.1,0.4,0.1
			c0.1,0.1,0.3,0.1,0.4,0.1c0.2,0,0.3,0.1,0.5,0.1c0.2,0,0.4,0,0.6,0c0.2,0,0.5-0.1,0.7-0.1c0.5-0.1,1-0.3,1.5-0.5
			c0.5-0.2,1-0.5,1.4-0.7c0.4-0.3,0.8-0.6,1.1-0.8c0.2-0.1,0.2-0.3,0.4-0.4c0.1-0.1,0.2-0.3,0.2-0.4C30.9,32.5,30.9,32.3,30.9,32.3z
			"/>
	</g>
</g>
</svg>
